<svg viewBox="0 0 24 24" fill="none" xmlns="http://www.w3.org/2000/svg" width="24" height="24"><path fill-rule="evenodd" clip-rule="evenodd" d="M12 12.014c4.894 0 8.893 1.95 9.054 4.428l.005.155V18.8a1.1 1.1 0 0 1-.98 1.094l-.12.006H4.041a1.1 1.1 0 0 1-1.094-.98l-.006-.12v-2.203c0-2.55 4.063-4.583 9.06-4.583Zm.03 1.386c-4.095 0-7.44 1.34-7.595 3.068l-.005.124v1.857l.097.096h15.006l.097-.096v-1.857l-.005-.122c-.15-1.728-3.498-3.07-7.595-3.07ZM12 2.1a4.584 4.584 0 1 1 .001 9.167 4.584 4.584 0 0 1 0-9.167Zm0 1.481a3.103 3.103 0 1 0 .001 6.207 3.103 3.103 0 0 0 0-6.207Z" fill="#1F1F1F"></path></svg>