<?xml version="1.0" encoding="UTF-8"?>
<svg width="83px" height="17px" viewBox="0 0 83 17" version="1.1" xmlns="http://www.w3.org/2000/svg" xmlns:xlink="http://www.w3.org/1999/xlink">
    <!-- Generator: Sketch 55.2 (78181) - https://sketchapp.com -->
    <title>logo_ABLY </title>
    <desc>Created with Sketch.</desc>
    <g id="And" stroke="none" stroke-width="1" fill="none" fill-rule="evenodd">
        <g id="79" class="painted" transform="translate(-72.000000, -44.000000)" fill="#000000">
            <g id="Bars/Navigation/Navigation-Bar">
                <g id="Toolbar">
                    <g id="logo_ABLY-" transform="translate(72.000000, 44.000000)">
                        <path d="M7.47102249,-0.000117864668 L0.553250458,16.3462383 L4.35585931,16.3462383 L5.84478473,12.8153075 L12.5562936,12.8153075 L14.0455137,16.3462383 L17.8481225,16.3462383 L10.9300558,-0.000117864668 L7.47102249,-0.000117864668 Z M9.21188363,4.86415698 L11.2049752,9.61145115 L7.19639781,9.61145115 L9.21188363,4.86415698 Z" id="Fill-1"></path>
                        <polygon id="Fill-2" points="48.4275508 -0.000117864668 48.4275508 16.3462383 60.7629723 16.3462383 60.7629723 13.0958254 52.208944 13.0958254 52.208944 -0.000117864668"></polygon>
                        <polygon id="Fill-3" points="77.9957886 -0.000117864668 74.3355013 6.0802257 70.6755087 -0.000117864668 66.5791222 -0.000117864668 72.444952 9.89196906 72.444952 16.3462383 76.2263453 16.3462383 76.2263453 9.89196906 82.0921751 -0.000117864668"></polygon>
                        <path d="M35.0981176,11.7923306 C35.0981176,12.7626514 34.1475391,13.5567646 33.1769235,13.5567646 L32.2257557,13.5567646 L32.2257557,13.557354 L29.2540927,13.557354 L29.2540927,9.96749085 L32.2257557,9.96749085 L32.2257557,9.96837483 L33.1769235,9.96837483 C34.1475391,9.96837483 35.0981176,10.7621934 35.0981176,11.7328089 L35.0981176,11.7923306 Z M32.2396047,2.81634678 L32.2396047,2.81723076 L32.5843589,2.81723076 C33.5546798,2.81723076 34.348793,3.6110493 34.348793,4.58166484 L34.348793,4.64089184 C34.348793,5.61150738 33.5546798,6.40562058 32.5843589,6.40562058 L32.2396047,6.40562058 L32.2396047,6.40591524 L29.2540927,6.40591524 L29.2540927,2.81634678 L32.2396047,2.81634678 Z M25.4282056,16.346916 L29.7364539,16.3478 L29.7570802,16.3478 L34.936643,16.3489786 C37.1404176,16.3489786 38.9410951,14.5533104 38.9410951,12.3495358 L38.9410951,11.7071733 C38.9410951,9.79835505 37.5874194,8.19215428 35.7932245,7.796129 C35.781438,7.79347705 35.7702409,7.78964644 35.7584544,7.78728915 C35.8126722,7.76960945 35.9110892,7.74750982 35.9688428,7.72776749 C38.3320294,6.96636174 38.0904069,4.13495775 38.0904069,4.13495775 C38.0904069,1.92853116 36.0413296,0.118719187 33.8546454,0.0356245959 L29.7815371,0.0253114375 L29.7538389,0.0259007608 L25.4255536,0.0247221141 L25.4282056,16.346916 Z" id="Fill-4"></path>
                    </g>
                </g>
            </g>
        </g>
    </g>
</svg>