<svg xmlns:xlink="http://www.w3.org/1999/xlink" width="24" height="24" fill="none" xmlns="http://www.w3.org/2000/svg" class="sc-24603e9f-2 guUUPN"><path fill-rule="evenodd" clip-rule="evenodd" d="M16.685 12.427c.75 0 1.41-.41 1.75-1.03l3.446-5.917a.997.997 0 0 0-.87-1.48H5.735l-.673-1.228a1 1 0 0 0-.877-.52H2.857a.865.865 0 0 0-.865.874.883.883 0 0 0 .883.874h1.126l3.6 7.59-1.35 2.44c-.73 1.34.23 2.406 1.75 2.406h11.282a.718.718 0 0 0 0-1.436H7.336l1.235-2.573h8.114ZM6.181 5.284h14.147L17.063 11H8.88L6.181 5.284ZM8.451 18a2.45 2.45 0 1 1 0 4.9 2.45 2.45 0 0 1 0-4.9Zm0 1.3a1.15 1.15 0 1 0 0 2.3 1.15 1.15 0 0 0 0-2.3Zm9-1.3a2.45 2.45 0 1 1 0 4.9 2.45 2.45 0 0 1 0-4.9Zm0 1.3a1.15 1.15 0 1 0 0 2.3 1.15 1.15 0 0 0 0-2.3Z" fill="#777777"></path></svg>