<svg xmlns:xlink="http://www.w3.org/1999/xlink" xmlns="http://www.w3.org/2000/svg" viewBox="0 0 24 24" width="20" height="20"><g fill="none" fill-rule="evenodd"><path d="M0 0h24v24H0z" fill="none"></path><path class="icon_share_svg__painted" fill="#9E9E9E" d="M16.783 15.91c-.722 0-1.368.284-1.862.73l-6.773-3.942c.047-.218.085-.437.085-.665 0-.228-.038-.446-.085-.665l6.697-3.904c.513.475 1.188.77 1.938.77a2.847 2.847 0 0 0 2.85-2.85 2.846 2.846 0 0 0-2.85-2.85 2.846 2.846 0 0 0-2.85 2.85c0 .227.038.446.086.664L7.32 9.953a2.837 2.837 0 0 0-1.938-.77 2.846 2.846 0 0 0-2.85 2.85 2.846 2.846 0 0 0 2.85 2.85c.75 0 1.425-.294 1.938-.77l6.764 3.953c-.047.2-.076.408-.076.617a2.777 2.777 0 0 0 2.774 2.774c1.53 0 2.774-1.244 2.774-2.774s-1.244-2.774-2.774-2.774z"></path></g></svg>